<?xml version="1.0" encoding="UTF-8" standalone="no" ?>
<!DOCTYPE svg PUBLIC "-//W3C//DTD SVG 1.1//EN" "http://www.w3.org/Graphics/SVG/1.1/DTD/svg11.dtd">
<svg xmlns="http://www.w3.org/2000/svg" xmlns:xlink="http://www.w3.org/1999/xlink" version="1.1" width="1080" height="1080" viewBox="0 0 1080 1080" xml:space="preserve">
<desc>Created with Fabric.js 5.2.4</desc>
<defs>
</defs>
<rect x="0" y="0" width="100%" height="100%" fill="transparent"></rect>
<g transform="matrix(1 0 0 1 540 540)" id="edc6f136-1e1d-4774-b0fe-f1ca1a960d2e"  >
</g>
<g transform="matrix(1 0 0 1 540 540)" id="232697f7-8837-4f4b-98f2-0139a91f36d4"  >
<rect style="stroke: none; stroke-width: 1; stroke-dasharray: none; stroke-linecap: butt; stroke-dashoffset: 0; stroke-linejoin: miter; stroke-miterlimit: 4; fill: rgb(255,255,255); fill-rule: nonzero; opacity: 1; visibility: hidden;" vector-effect="non-scaling-stroke"  x="-540" y="-540" rx="0" ry="0" width="1080" height="1080" />
</g>
<g transform="matrix(1.16 0 0 1.16 543.03 562.45)"  >
<g style="" vector-effect="non-scaling-stroke"   >
		<g transform="matrix(0.13 0 0 -0.13 479.79 -415.79)"  >
<path style="stroke: none; stroke-width: 1; stroke-dasharray: none; stroke-linecap: butt; stroke-dashoffset: 0; stroke-linejoin: miter; stroke-miterlimit: 4; fill: rgb(250,249,246); fill-rule: nonzero; opacity: 1;" vector-effect="non-scaling-stroke"  transform=" translate(-12015.19, -8868.84)" d="M 14385 11624 C 13717 11583 13407 11559 13382 11546 C 13330 11519 13400 11661 12708 10195 C 12516 9788 12297 9325 12222 9165 C 12148 9006 12084 8872 12080 8867 C 12077 8863 12014 9126 11941 9452 C 11868 9778 11750 10304 11678 10620 C 11607 10936 11542 11227 11534 11265 C 11517 11345 11499 11377 11466 11390 C 11452 11395 11387 11393 11299 11385 C 10354 11293 10104 11268 10090 11260 C 10081 11255 10068 11245 10062 11237 C 10049 11222 10002 10922 9861 9975 C 9817 9678 9747 9215 9706 8945 C 9664 8676 9554 7944 9460 7320 C 9366 6696 9287 6174 9285 6160 C 9282 6146 9286 6126 9294 6115 C 9312 6090 9284 6088 9919 6154 C 10377 6201 10444 6210 10461 6227 C 10477 6243 10504 6405 10635 7270 C 10721 7834 10793 8306 10796 8320 C 10800 8337 10815 8290 10846 8165 C 10870 8066 10978 7627 11085 7190 C 11193 6753 11283 6386 11285 6374 C 11288 6363 11299 6341 11311 6327 C 11327 6305 11340 6300 11374 6300 C 11421 6300 12068 6357 12116 6365 C 12132 6368 12160 6385 12178 6403 C 12198 6424 12339 6701 12583 7200 C 13192 8447 13243 8550 13246 8547 C 13247 8546 13220 8268 13185 7930 C 13064 6758 13039 6497 13044 6475 C 13047 6462 13057 6450 13065 6446 C 13074 6443 13203 6449 13353 6460 C 13503 6471 13755 6489 13914 6499 C 14182 6516 14205 6519 14220 6538 C 14242 6565 14221 6375 14509 9195 C 14759 11638 14754 11588 14742 11615 C 14728 11645 14726 11645 14385 11624 z" stroke-linecap="round" />
</g>
		<g transform="matrix(0.13 0 0 -0.13 -203.38 -350.98)"  >
<path style="stroke: none; stroke-width: 1; stroke-dasharray: none; stroke-linecap: butt; stroke-dashoffset: 0; stroke-linejoin: miter; stroke-miterlimit: 4; fill: rgb(250,249,246); fill-rule: nonzero; opacity: 1;" vector-effect="non-scaling-stroke"  transform=" translate(-6874.45, -8383.18)" d="M 8235 11073 C 7704 11016 7642 11007 7612 10987 C 7577 10964 7545 10916 6760 9706 C 6537 9363 6354 9083 6354 9083 C 6353 9084 6392 9474 6441 9950 C 6490 10426 6529 10826 6528 10839 C 6526 10852 6517 10868 6508 10874 C 6495 10881 6343 10869 5933 10826 C 5415 10773 5373 10767 5353 10747 C 5329 10723 5328 10715 5175 9195 C 5139 8838 5044 7909 4965 7132 C 4885 6354 4820 5700 4820 5679 C 4820 5647 4824 5638 4844 5630 C 4873 5620 5942 5725 5977 5742 C 5989 5748 6003 5764 6009 5779 C 6015 5793 6047 6073 6080 6400 C 6177 7351 6189 7462 6193 7466 C 6195 7469 6289 7348 6402 7198 C 6737 6752 7307 5998 7341 5956 C 7401 5884 7366 5884 8041 5956 C 8373 5991 8660 6023 8678 6025 C 8703 6030 8710 6036 8710 6054 C 8710 6084 8693 6107 8125 6857 C 7221 8051 7079 8242 7084 8257 C 7087 8264 7482 8874 7962 9612 C 8969 11159 8934 11104 8927 11124 C 8918 11147 8895 11145 8235 11073 z" stroke-linecap="round" />
</g>
		<g transform="matrix(0.13 0 0 -0.13 -826.16 -287.6)"  >
<path style="stroke: none; stroke-width: 1; stroke-dasharray: none; stroke-linecap: butt; stroke-dashoffset: 0; stroke-linejoin: miter; stroke-miterlimit: 4; fill: rgb(250,249,246); fill-rule: nonzero; opacity: 1;" vector-effect="non-scaling-stroke"  transform=" translate(-2207.35, -7910.2)" d="M 2772 10525 L 2278 10483 L 2251 10454 C 2232 10434 2120 10187 1910 9700 C 1603 8989 777 7088 261 5907 C 117 5579 0 5298 0 5285 C 0 5271 7 5257 16 5253 C 34 5246 352 5261 836 5290 C 1078 5304 1142 5311 1163 5325 C 1189 5342 1225 5415 1371 5755 C 1411 5849 1447 5930 1452 5936 C 1456 5942 1510 5950 1572 5954 C 1753 5964 2324 6008 2723 6041 C 2926 6058 3093 6070 3095 6068 C 3097 6066 3122 5957 3150 5825 C 3219 5508 3218 5512 3241 5489 C 3259 5471 3270 5469 3318 5474 C 3350 5478 3596 5501 3865 5525 C 4135 5550 4365 5572 4377 5575 C 4416 5584 4423 5613 4406 5693 C 4397 5733 4311 6130 4215 6575 C 3959 7754 3371 10448 3358 10498 C 3347 10543 3319 10571 3285 10569 C 3274 10568 3043 10548 2772 10525 z M 2705 7877 C 2781 7526 2841 7238 2839 7236 C 2836 7233 2354 7194 2068 7173 L 1980 7167 L 2091 7421 C 2151 7561 2283 7865 2383 8097 C 2483 8329 2566 8518 2566 8517 C 2567 8516 2629 8228 2705 7877 z" stroke-linecap="round" />
</g>
		<g transform="matrix(0.13 0 0 -0.13 674.05 308.79)"  >
<path style="stroke: none; stroke-width: 1; stroke-dasharray: none; stroke-linecap: butt; stroke-dashoffset: 0; stroke-linejoin: miter; stroke-miterlimit: 4; fill: rgb(250,249,246); fill-rule: nonzero; opacity: 1;" vector-effect="non-scaling-stroke"  transform=" translate(-13449.31, -3437.84)" d="M 13450 6069 C 13387 6064 13075 6034 12757 6002 C 12232 5949 12177 5941 12158 5923 C 12134 5898 12137 5920 12040 4980 C 11713 1779 11619 828 11631 814 C 11645 797 11699 796 11820 810 C 11867 815 12171 847 12495 880 C 13237 956 13394 981 13714 1077 C 14552 1326 15093 1822 15240 2475 C 15282 2659 15277 2920 15230 3106 C 15157 3392 14973 3628 14769 3695 L 14720 3712 L 14768 3750 C 14973 3911 15166 4245 15230 4545 C 15257 4672 15267 4895 15251 5013 C 15175 5580 14745 5956 14058 6055 C 13928 6074 13601 6082 13450 6069 z M 13732 5156 C 13877 5125 13990 5036 14053 4903 C 14084 4837 14085 4831 14085 4705 C 14084 4588 14082 4568 14058 4508 C 13961 4264 13742 4091 13480 4051 C 13393 4038 13141 4016 13137 4021 C 13135 4023 13159 4275 13189 4580 L 13245 5135 L 13390 5151 C 13577 5172 13650 5173 13732 5156 z M 13578 3100 C 13771 3068 13922 2951 13964 2799 C 14056 2472 13770 2069 13375 1970 C 13309 1953 12921 1906 12913 1913 C 12908 1919 13036 3059 13043 3066 C 13052 3075 13358 3107 13450 3109 C 13486 3109 13543 3105 13578 3100 z" stroke-linecap="round" />
</g>
		<g transform="matrix(0.13 0 0 -0.13 80.98 366.31)"  >
<path style="stroke: none; stroke-width: 1; stroke-dasharray: none; stroke-linecap: butt; stroke-dashoffset: 0; stroke-linejoin: miter; stroke-miterlimit: 4; fill: rgb(250,249,246); fill-rule: nonzero; opacity: 1;" vector-effect="non-scaling-stroke"  transform=" translate(-9010.89, -3004.53)" d="M 9565 5666 C 9257 5631 9087 5609 9072 5599 C 9059 5591 9040 5569 9030 5550 C 9020 5531 8837 5103 8622 4600 C 8408 4097 7923 2963 7545 2080 C 7167 1197 6845 442 6829 401 C 6795 317 6798 290 6840 290 C 6874 290 7858 387 7913 396 C 7934 399 7962 412 7976 423 C 7992 437 8045 550 8129 745 L 8257 1045 L 8456 1067 C 9337 1163 9894 1219 9900 1213 C 9906 1206 9985 857 10011 721 C 10025 651 10043 630 10092 630 C 10135 630 11149 737 11187 745 C 11225 754 11225 792 11191 954 C 11055 1591 10163 5660 10155 5683 C 10145 5708 10117 5720 10073 5719 C 10052 5718 9824 5694 9565 5666 z M 9511 3012 L 9647 2385 L 9616 2378 C 9571 2367 8799 2287 8794 2292 C 8789 2298 9361 3640 9369 3640 C 9372 3640 9436 3358 9511 3012 z" stroke-linecap="round" />
</g>
		<g transform="matrix(0.13 0 0 -0.13 -488.15 420.66)"  >
<path style="stroke: none; stroke-width: 1; stroke-dasharray: none; stroke-linecap: butt; stroke-dashoffset: 0; stroke-linejoin: miter; stroke-miterlimit: 4; fill: rgb(250,249,246); fill-rule: nonzero; opacity: 1;" vector-effect="non-scaling-stroke"  transform=" translate(-4729.08, -2599.78)" d="M 4465 5179 C 4339 5170 4093 5152 3920 5140 C 3624 5120 3604 5118 3583 5097 C 3563 5076 3555 5012 3462 4105 C 3406 3572 3291 2436 3204 1583 C 3069 246 3049 28 3061 14 C 3073 -1 3092 -2 3230 4 C 3673 22 4822 106 5840 195 C 6286 234 6288 235 6302 301 C 6312 350 6390 1132 6397 1255 C 6403 1354 6402 1356 6379 1366 C 6361 1375 6278 1370 6045 1349 C 5429 1294 4369 1208 4364 1213 C 4361 1215 4380 1399 4555 3110 C 4629 3839 4707 4599 4727 4799 L 4764 5163 L 4741 5181 C 4728 5192 4713 5199 4706 5199 C 4700 5198 4592 5189 4465 5179 z" stroke-linecap="round" />
</g>
		<g transform="matrix(0.13 0 0 -0.13 1043.08 545.78)"  >
<path style="stroke: none; stroke-width: 1; stroke-dasharray: none; stroke-linecap: butt; stroke-dashoffset: 0; stroke-linejoin: miter; stroke-miterlimit: 4; fill: rgb(250,249,246); fill-rule: nonzero; opacity: 1;" vector-effect="non-scaling-stroke"  transform=" translate(-16184.29, -1713.44)" d="M 16152 2215 C 16054 2193 15946 2134 15870 2060 C 15744 1939 15683 1813 15673 1660 C 15664 1515 15702 1410 15797 1314 C 15928 1184 16143 1162 16345 1260 C 16579 1373 16729 1637 16691 1867 C 16647 2129 16422 2273 16152 2215 z" stroke-linecap="round" />
</g>
</g>
</g>
<g transform="matrix(0 0 0 0 0 0)"  >
<g style=""   >
</g>
</g>
<g transform="matrix(0 0 0 0 0 0)"  >
<g style=""   >
</g>
</g>
<g transform="matrix(NaN NaN NaN NaN 0 0)"  >
<g style=""   >
</g>
</g>
<g transform="matrix(NaN NaN NaN NaN 0 0)"  >
<g style=""   >
</g>
</g>
</svg>